<svg id="visual" viewBox="0 0 900 600" width="900" height="600" xmlns="http://www.w3.org/2000/svg" xmlns:xlink="http://www.w3.org/1999/xlink" version="1.1"><rect x="0" y="0" width="900" height="600" fill="#001220"></rect><defs><linearGradient id="grad1_0" x1="33.3%" y1="100%" x2="100%" y2="0%"><stop offset="20%" stop-color="#fbae3c" stop-opacity="1"></stop><stop offset="80%" stop-color="#fbae3c" stop-opacity="1"></stop></linearGradient></defs><defs><linearGradient id="grad1_1" x1="33.3%" y1="100%" x2="100%" y2="0%"><stop offset="20%" stop-color="#fbae3c" stop-opacity="1"></stop><stop offset="80%" stop-color="#cc5867" stop-opacity="1"></stop></linearGradient></defs><defs><linearGradient id="grad1_2" x1="33.3%" y1="100%" x2="100%" y2="0%"><stop offset="20%" stop-color="#593762" stop-opacity="1"></stop><stop offset="80%" stop-color="#cc5867" stop-opacity="1"></stop></linearGradient></defs><defs><linearGradient id="grad1_3" x1="33.3%" y1="100%" x2="100%" y2="0%"><stop offset="20%" stop-color="#593762" stop-opacity="1"></stop><stop offset="80%" stop-color="#001220" stop-opacity="1"></stop></linearGradient></defs><defs><linearGradient id="grad2_0" x1="0%" y1="100%" x2="66.7%" y2="0%"><stop offset="20%" stop-color="#fbae3c" stop-opacity="1"></stop><stop offset="80%" stop-color="#fbae3c" stop-opacity="1"></stop></linearGradient></defs><defs><linearGradient id="grad2_1" x1="0%" y1="100%" x2="66.7%" y2="0%"><stop offset="20%" stop-color="#cc5867" stop-opacity="1"></stop><stop offset="80%" stop-color="#fbae3c" stop-opacity="1"></stop></linearGradient></defs><defs><linearGradient id="grad2_2" x1="0%" y1="100%" x2="66.7%" y2="0%"><stop offset="20%" stop-color="#cc5867" stop-opacity="1"></stop><stop offset="80%" stop-color="#593762" stop-opacity="1"></stop></linearGradient></defs><defs><linearGradient id="grad2_3" x1="0%" y1="100%" x2="66.7%" y2="0%"><stop offset="20%" stop-color="#001220" stop-opacity="1"></stop><stop offset="80%" stop-color="#593762" stop-opacity="1"></stop></linearGradient></defs><g transform="translate(900, 600)"><path d="M-400 0C-361.9 -19 -323.7 -38 -306.3 -54C-288.8 -70 -292 -83.1 -312 -113.6C-331.9 -144 -368.6 -191.9 -351.3 -202.8C-333.9 -213.8 -262.5 -187.8 -242.8 -203.8C-223.2 -219.7 -255.4 -277.4 -247.5 -294.9C-239.6 -312.4 -191.6 -289.7 -162 -280.6C-132.4 -271.5 -121.2 -276.1 -110.1 -302.6C-99 -329 -88 -377.4 -69.6 -394.9C-51.3 -412.5 -25.6 -399.2 0 -386L0 0Z" fill="#232745"></path><path d="M-300 0C-271.4 -14.2 -242.8 -28.5 -229.7 -40.5C-216.6 -52.5 -219 -62.3 -234 -85.2C-249 -108 -276.5 -143.9 -263.5 -152.1C-250.4 -160.3 -196.9 -140.9 -182.1 -152.8C-167.4 -164.8 -191.5 -208.1 -185.6 -221.2C-179.7 -234.3 -143.7 -217.3 -121.5 -210.4C-99.3 -203.6 -90.9 -207.1 -82.6 -226.9C-74.3 -246.8 -66 -283 -52.2 -296.2C-38.5 -309.3 -19.2 -299.4 0 -289.5L0 0Z" fill="#96446e"></path><path d="M-200 0C-180.9 -9.5 -161.9 -19 -153.1 -27C-144.4 -35 -146 -41.5 -156 -56.8C-166 -72 -184.3 -95.9 -175.6 -101.4C-167 -106.9 -131.2 -93.9 -121.4 -101.9C-111.6 -109.8 -127.7 -138.7 -123.7 -147.5C-119.8 -156.2 -95.8 -144.8 -81 -140.3C-66.2 -135.8 -60.6 -138.1 -55.1 -151.3C-49.5 -164.5 -44 -188.7 -34.8 -197.5C-25.6 -206.2 -12.8 -199.6 0 -193L0 0Z" fill="#f17c53"></path><path d="M-100 0C-90.5 -4.7 -80.9 -9.5 -76.6 -13.5C-72.2 -17.5 -73 -20.8 -78 -28.4C-83 -36 -92.2 -48 -87.8 -50.7C-83.5 -53.4 -65.6 -47 -60.7 -50.9C-55.8 -54.9 -63.8 -69.4 -61.9 -73.7C-59.9 -78.1 -47.9 -72.4 -40.5 -70.1C-33.1 -67.9 -30.3 -69 -27.5 -75.6C-24.8 -82.3 -22 -94.3 -17.4 -98.7C-12.8 -103.1 -6.4 -99.8 0 -96.5L0 0Z" fill="#fbae3c"></path></g><g transform="translate(0, 0)"><path d="M374 0C395.6 26.6 417.2 53.1 399.5 70.4C381.7 87.8 324.7 95.9 297.9 108.4C271 121 274.4 137.9 278.9 161C283.3 184.1 288.9 213.3 285.7 239.8C282.6 266.3 270.6 290.1 248.1 295.7C225.6 301.3 192.7 288.7 172 297.9C151.3 307.2 143 338.3 124.8 343C106.6 347.7 78.5 326 56.1 318.1C33.6 310.2 16.8 316.1 0 322L0 0Z" fill="#232745"></path><path d="M280.5 0C296.7 19.9 312.9 39.8 299.6 52.8C286.3 65.8 243.5 71.9 223.4 81.3C203.3 90.7 205.8 103.4 209.1 120.7C212.5 138.1 216.7 159.9 214.3 179.8C211.9 199.7 202.9 217.6 186.1 221.8C169.2 226 144.5 216.5 129 223.4C113.5 230.4 107.3 253.7 93.6 257.2C80 260.8 58.9 244.5 42.1 238.6C25.2 232.6 12.6 237.1 0 241.5L0 0Z" fill="#96446e"></path><path d="M187 0C197.8 13.3 208.6 26.6 199.7 35.2C190.9 43.9 162.4 47.9 148.9 54.2C135.5 60.5 137.2 69 139.4 80.5C141.7 92 144.5 106.6 142.9 119.9C141.3 133.1 135.3 145 124.1 147.8C112.8 150.6 96.3 144.3 86 149C75.7 153.6 71.5 169.1 62.4 171.5C53.3 173.8 39.3 163 28 159C16.8 155.1 8.4 158 0 161L0 0Z" fill="#f17c53"></path><path d="M93.5 0C98.9 6.6 104.3 13.3 99.9 17.6C95.4 21.9 81.2 24 74.5 27.1C67.8 30.2 68.6 34.5 69.7 40.2C70.8 46 72.2 53.3 71.4 59.9C70.6 66.6 67.6 72.5 62 73.9C56.4 75.3 48.2 72.2 43 74.5C37.8 76.8 35.8 84.6 31.2 85.7C26.7 86.9 19.6 81.5 14 79.5C8.4 77.5 4.2 79 0 80.5L0 0Z" fill="#fbae3c"></path></g></svg>